<svg xmlns="http://www.w3.org/2000/svg" viewBox="0 0 798.7 282.79"><defs><style>.cls-1{fill:#fff;}</style></defs><g id="Trace"><path d="M737.48,137.84c-3.06-3.6-6.3-7.2-9.64-10.72,17.57-27.83,16.1-40.06,11.73-45.42-3.66-4.47-10.28-5-14.94-3.22a30.47,30.47,0,0,0-7.83,5c-.49.37-1,.77-1.52,1.2s-1,.77-1.51,1.2-1,.78-1.52,1.2-1,.78-1.52,1.21-1,.77-1.51,1.2-1,.77-1.52,1.2-1,.77-1.51,1.2-1,.77-1.52,1.2l-1.51,1.2c-.49.38-1,.78-1.52,1.21s-1,.77-1.51,1.2-1,.77-1.52,1.2-1,.77-1.52,1.2l-.8.63c-23.07-15.7-40.82-18-46.74-11.86-.14.14-.28.32-.43.5a8.34,8.34,0,0,0-.76.68,5.78,5.78,0,0,0-.43.5,7.08,7.08,0,0,0-.76.68,4.44,4.44,0,0,0-.43.5,7.08,7.08,0,0,0-.76.68,5.78,5.78,0,0,0-.44.5,8.09,8.09,0,0,0-.76.67c-.13.14-.28.32-.43.51a8.09,8.09,0,0,0-.76.67c-.13.14-.28.32-.43.51a7,7,0,0,0-.76.67c-.13.14-.28.31-.43.5a8.34,8.34,0,0,0-.76.68,5.78,5.78,0,0,0-.43.5l-.45.39A55,55,0,0,0,627.93,90c-17-7-34.22-4.55-45,6.35a38.9,38.9,0,0,0-4,4.72c-.29.37-.59.73-.86,1.11s-.58.74-.86,1.12-.58.73-.85,1.11-.58.74-.86,1.12-.58.74-.85,1.12-.58.73-.86,1.11-.58.74-.85,1.12-.59.73-.86,1.12-.58.73-.86,1.11-.58.74-.85,1.12-.58.73-.86,1.12-.58.73-.85,1.11-.59.74-.86,1.12-.58.73-.86,1.11-.35.44-.52.67c-.8-.16-1.61-.32-2.44-.46a114.89,114.89,0,0,0-20-1.14c.2-.28.38-.57.56-.85s.49-.72.71-1.08.49-.72.71-1.08.49-.72.71-1.08.49-.72.71-1.07l.72-1.08c6-8.79,5.43-15.86,3.43-20.68-6.28-15.14-33.29-23.78-68.79-22-22.5,1.12-37.88,9.14-44.49,23.2-.15.34-.31.73-.47,1.15a34.52,34.52,0,0,0-21.64-14.51,28.92,28.92,0,0,0-25,6.92c-7.94,7-15.93,24.33-17.07,41l0-.22c0-.1,0-.19,0-.29,0-.26-.07-.53-.11-.79,0-.1,0-.19,0-.28,0-.27-.07-.53-.11-.8,0-.09,0-.19,0-.28,0-.27-.07-.53-.11-.8,0-.09,0-.18,0-.28,0-.27-.07-.53-.11-.79,0-.1,0-.19,0-.29,0-.26-.07-.53-.11-.79,0-.1,0-.19,0-.29,0-.26-.07-.53-.11-.79a2.64,2.64,0,0,0,0-.28c0-.27-.07-.53-.1-.8l0-.28c0-.27-.07-.53-.1-.79l0-.29c0-.27-.07-.53-.1-.79,0-.1,0-.19,0-.29,0-.26-.08-.53-.11-.79,0-.1,0-.19,0-.29,0-.26-.08-.52-.11-.79,0-.09,0-.19,0-.28,0-.27-.08-.53-.11-.8,0-.09,0-.19,0-.28,0-.27-.07-.53-.11-.79,0-.1,0-.19,0-.29,0-.27-.07-.53-.11-.79,0-.1,0-.19,0-.29a29.25,29.25,0,0,0-14.48-22.42c-7.36-4.06-15.92-4.09-24.1-.06-7.53,3.7-19.27,15.56-26.25,29.38-.06-.16-.13-.31-.2-.47l-.48-1.15-.48-1.14c-.15-.39-.32-.76-.48-1.14s-.31-.76-.48-1.14-.31-.76-.47-1.14-.32-.77-.48-1.14l-.48-1.15-.48-1.14c-.15-.38-.32-.76-.48-1.14s-.31-.76-.47-1.14l-.48-1.14c-.16-.39-.32-.76-.48-1.14l-.48-1.14c-.15-.39-.32-.77-.48-1.14s-.31-.77-.47-1.15L299.56,97l-.48-1.14c-3.2-8-7.48-13.7-12.47-16.26a12.35,12.35,0,0,0-12.07.16c-6.2,3.4-8.23,15.14-9.38,28.34-.13-.24-.27-.47-.42-.7-.21-.4-.44-.78-.68-1.16s-.45-.78-.68-1.15-.45-.79-.69-1.16-.45-.79-.68-1.16-.45-.79-.69-1.16-.44-.79-.68-1.16-.45-.79-.69-1.16-.44-.78-.68-1.16-.45-.78-.69-1.16-.44-.78-.68-1.16-.45-.78-.69-1.16-.44-.78-.68-1.16-.45-.78-.69-1.15c-3.17-5.87-8.53-9-18.61-7.92-6.65.72-10.76,2.89-13.29,6.06a13.69,13.69,0,0,0-.84-1.16,12,12,0,0,0-.9-1.25,12,12,0,0,0-.9-1.25,11.85,11.85,0,0,0-.89-1.25,12,12,0,0,0-.9-1.25,15.15,15.15,0,0,0-.89-1.26,13.11,13.11,0,0,0-.9-1.25,13.11,13.11,0,0,0-.9-1.25,15,15,0,0,0-.89-1.25,13.11,13.11,0,0,0-.9-1.25,13.11,13.11,0,0,0-.9-1.25,13.51,13.51,0,0,0-.89-1.25,12,12,0,0,0-.9-1.25,13.51,13.51,0,0,0-.89-1.25,15.08,15.08,0,0,0-4.29-4.37c-6.3-4.31-22.28-10.77-58.48-5.59-14.5,2.07-32.73,8.34-40.8,17.67-5.55,6.42-6.77,14.22-3.33,21.41a22,22,0,0,0,7,8.32q.66.55,1.35,1c.44.38.9.73,1.37,1.07s.91.74,1.37,1.07.91.74,1.38,1.07.9.74,1.37,1.07.91.74,1.38,1.08.9.74,1.37,1.07.9.74,1.37,1.07.91.74,1.38,1.07.9.74,1.37,1.08.91.74,1.37,1.07.91.74,1.38,1.07.9.74,1.37,1.07.91.74,1.38,1.08.9.74,1.37,1.07.9.74,1.37,1.07.91.74,1.38,1.07.9.74,1.37,1.07a17.19,17.19,0,0,0,1.38,1.08c.42.36.86.71,1.31,1a32.52,32.52,0,0,1-3.65,6.7A50.72,50.72,0,0,1,124,150.42a20.64,20.64,0,0,0-6.64-6.76c-.49-.36-1-.71-1.49-1a17.75,17.75,0,0,0-1.49-1,15.63,15.63,0,0,0-1.49-1,15.63,15.63,0,0,0-1.49-1,17.88,17.88,0,0,0-1.49-1c-.49-.36-1-.7-1.49-1s-1-.7-1.49-1-1-.7-1.48-1-1-.7-1.49-1-1-.7-1.49-1-1-.7-1.48-1-1-.7-1.49-1a17.75,17.75,0,0,0-1.49-1,17.75,17.75,0,0,0-1.49-1,17.6,17.6,0,0,0-1.48-1,17.75,17.75,0,0,0-1.49-1,17.75,17.75,0,0,0-1.49-1,16.25,16.25,0,0,0-1.49-1,17.6,17.6,0,0,0-1.48-1,15.63,15.63,0,0,0-1.49-1,17.28,17.28,0,0,0-4.89-2.58c-6.37-2.11-14.09-.34-23.6,5.41-15.93,9.61-20.58,23.11-13.1,38C52,176.39,65.51,187.74,82.29,195l1.51.67,1.51.67,1.52.67,1.51.67,1.52.67,1.51.67,1.51.67,1.52.67,1.51.67,1.51.67,1.52.67,1.51.67c.5.22,1,.45,1.52.66s1,.46,1.51.67L105,205l1.52.67,1.51.67,1.51.67,1.52.67,1.51.67c1.21.55,2.44,1.09,3.69,1.59a77.48,77.48,0,0,0,28.54,5.79A54.39,54.39,0,0,0,165.35,212c10.66-4.35,21-14.71,26.78-25.84l.63.43c.34.26.69.51,1,.75s.69.51,1,.75.68.51,1,.75.68.51,1,.75.68.51,1,.75.69.51,1,.75.69.51,1,.75.69.51,1,.75.68.51,1,.75a24.34,24.34,0,0,0,6.94,3.66,35.87,35.87,0,0,0,11.52,1.79c13.79,0,29.28-6.66,38.84-17.08l.37.38c.22.26.45.5.67.74s.45.49.67.73.45.5.67.74.45.49.67.73.45.5.67.74l.67.74c.22.25.45.49.67.73s.45.5.67.74.45.49.68.73.44.5.67.74.44.49.67.73.44.5.67.74.44.49.67.73.44.5.67.74.44.49.67.73.44.5.67.74.44.49.67.73.44.5.67.74.44.49.67.74a13.85,13.85,0,0,0,1.34,1.43c3.32,3.07,8.16,4.72,13.79,4.72.67,0,1.37,0,2.07-.08,10.13-.7,18.23-8.23,22.42-20.09.06.11.13.21.19.31.14.27.29.53.45.79s.29.53.45.79.29.53.45.79.29.53.45.79a25.49,25.49,0,0,0,15.64,12.38A39.41,39.41,0,0,0,341,199.4c15.08,0,32.85-7,43.9-18.17,0,0,.09-.09.13-.15l.3.44c8.07,11,19.9,16.93,33.78,16.93a51.26,51.26,0,0,0,6.48-.41,63.67,63.67,0,0,0,29.94-12.43c-.11.29-.23.57-.33.87s-.19.47-.26.7-.19.47-.27.71-.19.47-.26.71-.2.47-.27.71-.19.47-.27.71-.19.47-.26.71-.19.47-.27.71-.19.47-.26.71-.2.46-.27.7-.19.47-.27.71-.19.47-.26.71-.19.47-.27.71-.19.47-.26.71-.2.47-.27.71-.19.47-.27.71-.19.47-.26.71-.19.47-.27.71-.19.46-.26.7-.2.47-.27.71-.19.47-.27.71a12,12,0,0,0-.54,6.73c1.19,6,5,10.13,11.35,12.36a38.77,38.77,0,0,0,12.69,1.83c27.48,0,71-18.88,90.15-34.89.61-.51,1.18-1,1.75-1.56l.88-.79.13-.12a31.12,31.12,0,0,0,4,3c5.85,3.7,13.59,5.56,21.53,5.56a51,51,0,0,0,11.68-1.36,20.66,20.66,0,0,0-1.59,13.25,17.23,17.23,0,0,0,7.73,11.08,23,23,0,0,0,12,3.4,32,32,0,0,0,14.82-4.12l1.25-.63,1.25-.63,1.25-.64,1.25-.63c.41-.2.83-.41,1.24-.63l1.26-.64,1.25-.63,1.24-.63,1.26-.64,1.25-.63,1.25-.63,1.24-.64c.42-.2.84-.41,1.25-.63l1.26-.63,1.24-.64q.63-.3,1.26-.63l1.24-.63c.42-.21.84-.42,1.25-.64s.83-.41,1.25-.63.84-.42,1.25-.63A76.43,76.43,0,0,0,678,191c1.82,2.77,3.51,5.34,4.83,7.39a24,24,0,0,0,29.53,8.87c.57-.21,1.12-.43,1.65-.68s1.12-.43,1.65-.67a17.28,17.28,0,0,0,1.65-.68c.57-.2,1.12-.43,1.66-.67s1.11-.43,1.65-.68,1.11-.43,1.65-.67,1.11-.43,1.65-.68,1.11-.43,1.65-.67,1.11-.43,1.65-.68,1.11-.43,1.65-.67,1.11-.43,1.65-.68,1.11-.43,1.65-.67,1.11-.43,1.65-.67,1.11-.43,1.65-.68,1.11-.43,1.65-.67,1.11-.43,1.65-.68,1.11-.43,1.65-.67,1.11-.43,1.65-.68,1.11-.43,1.65-.67,1.11-.43,1.65-.68a21.15,21.15,0,0,0,4.09-2c3.44-2.17,5.76-6.11,6.52-11.11C757,174,756,159.46,737.48,137.84Z"/><path d="M737.48,137.84c-3.06-3.6-6.3-7.2-9.64-10.72,17.57-27.83,16.1-40.06,11.73-45.42-3.66-4.47-10.28-5-14.94-3.22-5.2,2-12.78,8.66-26,22.87-24.19-17.13-42.92-19.77-49-13.45-1.56,1.62-4.49,6.3,2,14.73,3,3.87,7.52,8.84,12.75,14.59,3.06,3.37,6.49,7.16,10,11.12-5.3,5.53-10.81,10.5-15.9,14.9a51.08,51.08,0,0,0,.91-9.66c0-18.66-12.33-35.79-31.4-43.63-17-7-34.22-4.55-45,6.35-5.58,5.64-9.28,12.72-11.58,22.16a72.82,72.82,0,0,0-7.34-1.61,116.52,116.52,0,0,0-21-1.11c11.39-11.72,11.09-21,8.63-26.95-6.28-15.14-33.29-23.78-68.79-22-22.5,1.12-37.88,9.14-44.49,23.2-.15.34-.31.73-.47,1.15a34.52,34.52,0,0,0-21.64-14.51,28.92,28.92,0,0,0-25,6.92c-9.22,8.1-18.5,30.17-17.07,48.89,0,.61.1,1.21.16,1.84-6.93-.34-14.38,4.18-19.34,7.2-9.47,5.77-17,7.21-20.56,3.94-3.92-3.57-3.23-12.52,1.76-22.79,3.33-6.85,6.4-10.69,7.64-11.61a6.42,6.42,0,0,1,.54,2.68A14.34,14.34,0,0,0,350.13,125c3.41,2.76,9.63,2.86,14.48.23,5.62-3.05,8.4-9,7.63-16.3a29.25,29.25,0,0,0-14.48-22.42c-7.36-4.06-15.92-4.09-24.1-.06-8.61,4.23-22.74,19.15-28.94,35.46-.17-1.82-.34-3.46-.45-4.4-2.32-19.2-8.92-33.34-17.66-37.82a12.35,12.35,0,0,0-12.07.16c-7.84,4.3-9,22-10.16,39l-.06.93q-3-3.24-3.86-9.5c-2.31-16.33-5.32-27.74-23.23-25.8-17.68,1.91-17.44,14.05-17.16,28.11.05,2.47.1,5,.08,7.66-.11,9.46-.83,18-8.48,19-2.25.3-3-.45-3.23-.69-2.07-2.08-1.2-8.42-.37-14.55,1.06-7.78,2.15-15.83-1.62-20-1.67-1.84-4.13-2.71-7.29-2.59-4.67.17-12.08,2.52-17.75,14a109.79,109.79,0,0,0,.26-16.85,39.19,39.19,0,0,1,4.59-.24c4.35-.09,10.31-.2,15.63-2,5.71-1.9,10.5-7.88,11.39-14.22a13.4,13.4,0,0,0-6.12-13.4c-6.3-4.31-22.28-10.77-58.48-5.59-14.5,2.07-32.73,8.34-40.8,17.67-5.55,6.42-6.77,14.22-3.33,21.41,3.16,6.62,9.85,11.49,15.54,11.27,6-.2,11.62-2.61,16.15-4.54,2.77-1.18,5.61-2.39,6.86-2.25,1.12,2.77-.43,21.77-7.82,31.92-7.9,10.85-15.7,16.15-22.57,15.32-6-.72-11.2-6.19-15.15-15.8s-8.74-15.24-14.9-17.27c-6.37-2.11-14.09-.34-23.6,5.41-15.93,9.61-20.58,23.11-13.1,38,6.38,12.7,20.9,24.58,38.84,31.77a86,86,0,0,0,31.71,6.43,60.44,60.44,0,0,0,22.84-4.21c13.69-5.59,26.88-20.1,32.41-34.53,1.79,8.62,7.33,14.83,16.18,17.86a39.73,39.73,0,0,0,12.8,2c17.74,0,38-9.91,47.68-24.75a68.67,68.67,0,0,1,10.34-12.62c-.05.14-.09.28-.13.42-2.31,7.42-4.49,14.42-4.44,20.86.06,6.25,2,11.18,5.76,14.66s9.07,5.24,15.32,5.24c.75,0,1.52,0,2.3-.08,11.43-.79,20.53-9.39,25.13-22.9a28.34,28.34,0,0,0,19.37,18.18,43.55,43.55,0,0,0,12.44,1.69c16.75,0,36.5-7.78,48.77-20.18l.15-.17c.11.17.23.33.33.49,9,12.28,22.11,18.81,37.54,18.81a57.31,57.31,0,0,0,7.2-.46c19.74-2.46,40.15-15.29,45.49-28.59,2.2-5.47,1.63-10.5-1.65-14.53-4.44-5.46-8.56-8.12-13-8.39-7.62-.44-15,6.65-23.53,14.88-5.21,5-10.14,6.89-14.66,5.58-6.14-1.78-10.81-9.31-13.07-16.65a29.9,29.9,0,0,0,3.79.25,33,33,0,0,0,20.33-7.22c6-4.77,9.88-11.24,10.58-17.59,4.2,5,10.25,8.24,15,7.44,6.91-1.14,13.41-7.82,17.12-14.67,5.54,23.13,7.35,47,5.13,67.63a61.8,61.8,0,0,0-12.63,3.86,35.5,35.5,0,0,0-8.51,5.6,13.8,13.8,0,0,0-4.07,12.78c1.33,6.64,5.57,11.26,12.61,13.73a43.08,43.08,0,0,0,14.1,2c30.54,0,78.95-21,100.17-38.77,1.07-.89,2.07-1.82,3-2.77a34.11,34.11,0,0,0,4.49,3.39c6.5,4.11,15.1,6.18,23.93,6.18a56.77,56.77,0,0,0,13-1.51,23,23,0,0,0-1.77,14.72A19.11,19.11,0,0,0,633,202.49a25.6,25.6,0,0,0,13.37,3.78c15.54,0,33.93-13.73,55.73-41.5,4.36,6.49,9.13,13.7,12.17,18.42,8.28,12.87,25.17,14.86,35.14,8.61,3.44-2.17,5.76-6.11,6.52-11.11C757,174,756,159.46,737.48,137.84ZM753,180.24c-.63,4.12-2.46,7.32-5.15,9-7.6,4.76-23,4.76-31-7.69-3.32-5.16-8.69-13.28-13.35-20.19a1.49,1.49,0,0,0-1.2-.66,1.46,1.46,0,0,0-1.23.58c-27.93,36-49.67,48.67-66.47,38.61a16.08,16.08,0,0,1-7.2-10.38,19.87,19.87,0,0,1,2.93-15.22,47.16,47.16,0,0,0,7.35-3.05,1.5,1.5,0,0,0-1.4-2.66c-14,7.33-33.45,7.18-45.35-.34a33.3,33.3,0,0,1-4-3,38.69,38.69,0,0,0,7.2-11,1.5,1.5,0,0,0-2.77-1.15,39.87,39.87,0,0,1-11.48,14.81c-12.4,10.39-33.66,21.6-55.49,29.26-24.05,8.43-44.42,11-55.87,6.94-6-2.1-9.55-6-10.66-11.49a10.73,10.73,0,0,1,3.27-10.08,33,33,0,0,1,7.59-5,60.72,60.72,0,0,1,13.06-3.87,1.51,1.51,0,0,0,1.21-1.33c2.58-22.51.41-48.75-6.12-73.91a1.5,1.5,0,0,0-2.86-.15c-2.76,7.33-9.74,15.6-16.62,16.74-4.63.76-12.13-3.92-15.32-11.32a1.5,1.5,0,0,0-2.78,1.12h0a11.84,11.84,0,0,1,.67,3.9c-.1,6-3.67,12.39-9.56,17.06a29.23,29.23,0,0,1-24,6,1.73,1.73,0,0,0-.32,0h-.29l-.22.07h-.05a1.51,1.51,0,0,0-.94,1.4,1.6,1.6,0,0,0,0,.3.43.43,0,0,0,0,.11c2,8.15,7.32,18.54,15.75,21,5.63,1.63,11.54-.49,17.58-6.3,9.31-9,15.38-14.42,21.27-14,3.48.21,7,2.59,10.84,7.28,2.59,3.18,3,7.06,1.2,11.52-4.34,10.81-22,24.11-43.08,26.73-17.4,2.18-32.29-3.91-41.92-17.11-.23-.33-.48-.7-.69-1a39.6,39.6,0,0,0,4-5.47,1.5,1.5,0,0,0-2.57-1.55,39.08,39.08,0,0,1-5.8,7.36c-14.8,15-40.91,22.92-58.21,17.73-10-3-16.44-10.2-18.67-20.82a68.06,68.06,0,0,0,1.39-8.73,1.5,1.5,0,1,0-3-.27,66.4,66.4,0,0,1-1.29,8.3,1.57,1.57,0,0,0-.16.67c-4.2,17.67-15,24.84-23.85,25.45-6.39.43-11.85-1.11-15.38-4.37-3.13-2.9-4.74-7.1-4.79-12.49-.05-6,2.06-12.75,4.3-19.94q.75-2.41,1.49-4.86a25.27,25.27,0,0,1,8.73-4.38,1.5,1.5,0,0,0-.71-2.92c-3.9,1-14.15,5-25.1,21.83-12.49,19.23-40.38,27.25-57,21.56-7.43-2.54-16-8.87-14.68-24.57v-.12a.76.76,0,0,0,0-.15.77.77,0,0,0,0-.15l0-.13-.06-.15-.05-.12-.09-.13a.41.41,0,0,0-.07-.11l-.1-.11-.1-.1-.12-.08-.12-.08a.59.59,0,0,0-.14-.06l-.13-.06-.15,0-.12,0h-.15a1.5,1.5,0,0,0-1.36.78l0,.07a1.07,1.07,0,0,0-.07.19.65.65,0,0,0,0,.13s0,.08,0,.13c-2,15.81-17.46,35.26-33,41.62-31.31,12.77-77-7.52-89.58-32.56-6.68-13.3-2.42-25.41,12-34.1,8.72-5.27,15.62-6.95,21.11-5.14,5.27,1.75,9.42,6.69,13.06,15.57,4.39,10.68,10.46,16.78,17.57,17.63,8,1,16.78-4.75,25.36-16.52,7.63-10.49,9.76-29.57,8.29-34.43a2.81,2.81,0,0,0-1.6-2c-2.19-.81-5.19.47-9.33,2.24-4.3,1.83-9.66,4.12-15.08,4.3h-.24c-4.46,0-9.91-4.16-12.5-9.58-1.7-3.56-3.58-10.65,2.9-18.15,7.52-8.7,25.46-14.73,38.95-16.66,25.71-3.68,46.26-1.82,56.37,5.1a10.37,10.37,0,0,1,4.83,10.51C209.58,86.9,205.55,92,201,93.5c-4.9,1.63-10.59,1.74-14.75,1.82-3.9.07-6.06.11-7.06,1.24a2,2,0,0,0-.52,1.54c.94,10.81-.74,24.85-2.46,33.59a.62.62,0,0,0,0,.19s0,.07,0,.1,0,.12,0,.17,0,.09,0,.13l0,.13a.83.83,0,0,0,0,.15l.06.1.08.15.07.09.11.13.11.09.11.1.16.08.1.06.21.06.08,0h.13a1.49,1.49,0,0,0,1.55-.9c0-.05,0-.1.05-.15s0-.09,0-.14h0c4.81-23.72,14.7-27.61,20.18-27.82,2.27-.07,3.89.45,4.95,1.62,2.83,3.12,1.78,10.79.87,17.56-1,7.17-1.9,13.95,1.21,17.07a5.93,5.93,0,0,0,4.39,1.65,10.7,10.7,0,0,0,1.36-.09c10.87-1.43,11-13.8,11.09-22,0-2.69,0-5.26-.08-7.75-.29-14.62-.47-23.45,14.49-25.07,13.93-1.5,17.32,4.78,19.93,23.24,1,7.07,3.83,11.06,7.16,13.24a1.52,1.52,0,0,0,.41.24,15.73,15.73,0,0,0,7.46,2.14,1.5,1.5,0,1,0,.14-3,13.1,13.1,0,0,1-5.48-1.36c.07-1,.13-1.93.2-2.91,1-15.51,2.21-33.09,8.6-36.6a9.38,9.38,0,0,1,9.26-.13c2.94,1.51,12.79,8.54,16.05,35.52.29,2.38.91,9.17,1.14,12.32,0,0,0,0,0,0a1.38,1.38,0,0,0,.14.49l0,.05a1.41,1.41,0,0,0,.29.4l0,0a1.57,1.57,0,0,0,.44.28h0a1.38,1.38,0,0,0,.29.08,1,1,0,0,0,.24,0h.21l.19,0,.11,0,.15-.06.13-.07.12-.08.11-.1.1-.09a.94.94,0,0,0,.09-.12l.09-.11.07-.14a.61.61,0,0,0,.05-.12,1.09,1.09,0,0,0,.05-.17l0-.09c.21-1.18.47-2.23.55-2.52,4.56-17.15,20.23-34.36,29-38.68,7.28-3.58,14.85-3.58,21.33,0a26.27,26.27,0,0,1,12.95,20.11c.87,8.27-3.44,11.92-6.09,13.36-4.21,2.29-9,1.83-11.16.07-4.23-3.41-4.49-6.5-4.72-9.22-.16-1.87-.33-3.81-2-5.14a2.16,2.16,0,0,0-1.87-.41c-3.8.85-9.39,12.15-10,13.43-5.67,11.68-6.09,21.76-1.07,26.32a10.16,10.16,0,0,0,7.1,2.5c5.89,0,12.7-3.46,17-6.1,7.82-4.75,16.68-9.44,22.94-5a1.5,1.5,0,1,0,1.74-2.44,12.28,12.28,0,0,0-3.82-1.86c-.11-.9-.19-1.74-.25-2.57-1.43-18.76,8.39-39.67,16.06-46.4a25.94,25.94,0,0,1,22.48-6.23,31.36,31.36,0,0,1,21.56,16.35,1.43,1.43,0,0,0,.64.69l0,0,.2.09.16,0,.1,0h.31l.21,0,.09,0,.14,0,.15-.05h0l.08-.05.15-.1.11-.09.1-.1a.94.94,0,0,0,.09-.12l.09-.12.06-.12.06-.14a.74.74,0,0,1,0-.14l0-.14a1,1,0,0,0,0-.17s0-.07,0-.1a10.37,10.37,0,0,1,1-4c7.71-16.41,27-20.73,41.92-21.47C517.17,68.06,543,76,548.83,89.94c3.27,7.88-.47,17-10.82,26.42a1.5,1.5,0,0,0,1.29,2.58,117,117,0,0,1,24.2.87,65.94,65.94,0,0,1,8.5,2l.1,0h0a41.39,41.39,0,0,1,10.89,5,1.5,1.5,0,0,0,1.67-2.5,44.14,44.14,0,0,0-10.46-5c2.16-9,5.62-15.65,10.83-20.92,9.92-10,25.92-12.2,41.74-5.69,17.94,7.38,29.54,23.42,29.54,40.86A42.14,42.14,0,0,1,652,153a1.51,1.51,0,0,0,.65,2,1.54,1.54,0,0,0,.68.16,1.5,1.5,0,0,0,1.34-.81,39.62,39.62,0,0,0,2.45-6,257.42,257.42,0,0,0,20.31-18.9,1.5,1.5,0,0,0,0-2c-3.81-4.36-7.59-8.52-10.92-12.19-5.19-5.7-9.67-10.64-12.6-14.41-3.59-4.63-4.41-8.57-2.25-10.8,4.44-4.59,21.7-3.11,46.2,14.57a1.5,1.5,0,0,0,2-.2c9.39-10.11,19.79-20.76,25.82-23.07,2.95-1.14,8.46-1.46,11.54,2.31s5.61,14.45-12.56,42.9a1.48,1.48,0,0,0,.18,1.84c3.58,3.75,7,7.6,10.32,11.45C752.89,160.5,753.94,174,753,180.24Z"/><path d="M523.09,97.88c-2.82-2.22-8.7-2.93-15.71-1.89a1.54,1.54,0,0,0-1.06.7,1.51,1.51,0,0,0-.15,1.26,53,53,0,0,1,2.3,11.08A1.5,1.5,0,0,0,510,110.4h.11c5.69-.42,11.19-3.5,13.48-6.19a4.57,4.57,0,0,0,1.33-3.28A4.35,4.35,0,0,0,523.09,97.88Zm-11.8,9.35a58.34,58.34,0,0,0-1.73-8.49c6.29-.69,10.19.33,11.67,1.5a1.56,1.56,0,0,1,.66,1C521.92,102.36,517.19,106.28,511.29,107.23Z"/><path d="M553.17,139.69c-5.54-4.19-22.84-1.52-35.53,3.6a1.49,1.49,0,0,0-.93,1.54,166.36,166.36,0,0,1,.48,18.29,1.51,1.51,0,0,0,.62,1.28,1.56,1.56,0,0,0,.88.28,1.71,1.71,0,0,0,.54-.1l1.38-.54c17.73-6.9,33.7-13.63,34.42-20.19A4.42,4.42,0,0,0,553.17,139.69Zm-1.12,3.84c-.57,5.16-21.89,13.57-31.8,17.43.06-4.51-.09-10.94-.45-15.3,13.81-5.35,27.92-6.33,31.55-3.58A1.46,1.46,0,0,1,552.05,143.53Z"/><path d="M624.58,134.52c-1-7.18-5.94-12.37-11.26-11.81a7.74,7.74,0,0,0-5.35,3.12c-2.09,2.66-3,6.7-2.43,10.79,1,6.82,5.46,11.85,10.47,11.85a7.09,7.09,0,0,0,.79,0,7.81,7.81,0,0,0,5.36-3.12A14.57,14.57,0,0,0,624.58,134.52Zm-4.79,8.94a4.89,4.89,0,0,1-3.31,2c-3.54.38-7.22-3.86-8-9.25a15.32,15.32,0,0,1-.14-2,10.66,10.66,0,0,1,2-6.52,4.91,4.91,0,0,1,3.31-2l.44,0c3.43,0,6.81,4.1,7.53,9.27A11.49,11.49,0,0,1,619.79,143.46Z"/><path d="M416.84,109.76a.49.49,0,0,0,0-.12l0-.15s0-.11,0-.13a1.8,1.8,0,0,0,0-.19c0-.13,0-.26-.06-.39a1.61,1.61,0,0,0-.16-.38c-.87-2.65-2.93-5.63-5.07-6.44-.77-.29-2.05-.28-3.82,1.48-2.75,2.73-5.95,9.13-3.57,15.63a0,0,0,0,1,0,0l0,.09,0,0a1.37,1.37,0,0,0,.2.35s0,0,0,0a1.24,1.24,0,0,0,.29.27.18.18,0,0,0,.07,0,1.49,1.49,0,0,0,.36.17h0a1,1,0,0,0,.25.06h.17l.36,0a13.36,13.36,0,0,0,9-4A7.87,7.87,0,0,0,416.84,109.76Zm-4.2,4.42a10.64,10.64,0,0,1-6.05,2.95,12.25,12.25,0,0,1,1.13-8.72,8.84,8.84,0,0,1,2.88-3.54,9.25,9.25,0,0,1,3.21,5A4.86,4.86,0,0,1,412.64,114.18Z"/><path class="cls-1" d="M735.19,139.79c-3.27-3.85-6.74-7.7-10.32-11.45a1.48,1.48,0,0,1-.18-1.84c18.17-28.45,15.67-39.09,12.56-42.9s-8.59-3.45-11.54-2.31c-6,2.31-16.43,13-25.82,23.07a1.5,1.5,0,0,1-2,.2C673.41,86.88,656.15,85.4,651.71,90c-2.16,2.23-1.34,6.17,2.25,10.8,2.93,3.77,7.41,8.71,12.6,14.41,3.33,3.67,7.11,7.83,10.92,12.19a1.5,1.5,0,0,1,0,2,257.42,257.42,0,0,1-20.31,18.9,39.62,39.62,0,0,1-2.45,6,1.5,1.5,0,0,1-1.34.81,1.54,1.54,0,0,1-.68-.16,1.51,1.51,0,0,1-.65-2,42.14,42.14,0,0,0,4.31-19.37c0-17.44-11.6-33.48-29.54-40.86C611,86.21,595,88.39,585.05,98.41c-5.21,5.27-8.67,12-10.83,20.92a44.14,44.14,0,0,1,10.46,5,1.5,1.5,0,0,1,.41,2.08,1.5,1.5,0,0,1-2.08.42,41.39,41.39,0,0,0-10.89-5h0l-.1,0a65.94,65.94,0,0,0-8.5-2,117,117,0,0,0-24.2-.87,1.5,1.5,0,0,1-1.29-2.58c10.35-9.4,14.09-18.54,10.82-26.42C543,76,517.17,68.06,483,69.75c-14.87.74-34.21,5.06-41.92,21.47a10.37,10.37,0,0,0-1,4s0,.07,0,.1a1,1,0,0,1,0,.17l0,.14a.74.74,0,0,0,0,.14l-.06.14-.06.12-.09.12a.94.94,0,0,1-.09.12l-.1.1-.11.09-.15.1-.08.05h0l-.15.05-.14,0-.09,0-.21,0h-.31l-.1,0-.16,0-.2-.09,0,0a1.43,1.43,0,0,1-.64-.69,31.36,31.36,0,0,0-21.56-16.35,25.94,25.94,0,0,0-22.48,6.23c-7.67,6.73-17.49,27.64-16.06,46.4.06.83.14,1.67.25,2.57a12.28,12.28,0,0,1,3.82,1.86,1.5,1.5,0,1,1-1.74,2.44c-6.26-4.48-15.12.21-22.94,5-4.33,2.64-11.14,6.1-17,6.1a10.16,10.16,0,0,1-7.1-2.5c-5-4.56-4.6-14.64,1.07-26.32.63-1.28,6.22-12.58,10-13.43a2.16,2.16,0,0,1,1.87.41c1.65,1.33,1.82,3.27,2,5.14.23,2.72.49,5.81,4.72,9.22,2.18,1.76,6.95,2.22,11.16-.07,2.65-1.44,7-5.09,6.09-13.36a26.27,26.27,0,0,0-12.95-20.11c-6.48-3.57-14.05-3.57-21.33,0-8.79,4.32-24.46,21.53-29,38.68-.08.29-.34,1.34-.55,2.52l0,.09a1.09,1.09,0,0,1-.05.17.61.61,0,0,1-.05.12l-.07.14-.09.11a.94.94,0,0,1-.09.12l-.1.09-.11.1-.12.08-.13.07-.15.06-.11,0-.19,0h-.21a1,1,0,0,1-.24,0,1.38,1.38,0,0,1-.29-.08h0a1.57,1.57,0,0,1-.44-.28l0,0a1.41,1.41,0,0,1-.29-.4l0-.05a1.38,1.38,0,0,1-.14-.49s0,0,0,0c-.23-3.15-.85-9.94-1.14-12.32-3.26-27-13.11-34-16.05-35.52a9.38,9.38,0,0,0-9.26.13c-6.39,3.51-7.57,21.09-8.6,36.6-.07,1-.13,1.94-.2,2.91a13.1,13.1,0,0,0,5.48,1.36,1.5,1.5,0,1,1-.14,3,15.73,15.73,0,0,1-7.46-2.14,1.52,1.52,0,0,1-.41-.24c-3.33-2.18-6.16-6.17-7.16-13.24-2.61-18.46-6-24.74-19.93-23.24-15,1.62-14.78,10.45-14.49,25.07.05,2.49.1,5.06.08,7.75-.09,8.19-.22,20.56-11.09,22a10.7,10.7,0,0,1-1.36.09,5.93,5.93,0,0,1-4.39-1.65c-3.11-3.12-2.19-9.9-1.21-17.07.91-6.77,2-14.44-.87-17.56-1.06-1.17-2.68-1.69-4.95-1.62-5.48.21-15.37,4.1-20.18,27.82h0s0,.09,0,.14,0,.1-.05.15a1.49,1.49,0,0,1-1.55.9h-.13l-.08,0-.21-.06-.1-.06-.16-.08-.11-.1-.11-.09-.11-.13-.07-.09-.08-.15-.06-.1a.83.83,0,0,1,0-.15l0-.13s0-.09,0-.13,0-.11,0-.17,0-.07,0-.1a.62.62,0,0,1,0-.19c1.72-8.74,3.4-22.78,2.46-33.59a2,2,0,0,1,.52-1.54c1-1.13,3.16-1.17,7.06-1.24,4.16-.08,9.85-.19,14.75-1.82,4.6-1.54,8.63-6.6,9.35-11.78a10.37,10.37,0,0,0-4.83-10.51c-10.11-6.92-30.66-8.78-56.37-5.1-13.49,1.93-31.43,8-38.95,16.66-6.48,7.5-4.6,14.59-2.9,18.15,2.59,5.42,8,9.58,12.5,9.58H120c5.42-.18,10.78-2.47,15.08-4.3,4.14-1.77,7.14-3,9.33-2.24a2.81,2.81,0,0,1,1.6,2c1.47,4.86-.66,23.94-8.29,34.43-8.58,11.77-17.33,17.5-25.36,16.52-7.11-.85-13.18-6.95-17.57-17.63-3.64-8.88-7.79-13.82-13.06-15.57-5.49-1.81-12.39-.13-21.11,5.14-14.39,8.69-18.65,20.8-12,34.1,12.58,25,58.27,45.33,89.58,32.56,15.58-6.36,31-25.81,33-41.62,0,0,0-.09,0-.13a.65.65,0,0,1,0-.13,1.07,1.07,0,0,1,.07-.19l0-.07a1.5,1.5,0,0,1,1.36-.78h.15l.12,0,.15,0,.13.06a.59.59,0,0,1,.14.06l.12.08.12.08.1.1.1.11a.41.41,0,0,1,.07.11l.09.13.05.12.06.15,0,.13a.77.77,0,0,1,0,.15.76.76,0,0,1,0,.15v.12c-1.32,15.7,7.25,22,14.68,24.57,16.6,5.69,44.49-2.33,57-21.56,11-16.85,21.2-20.88,25.1-21.83a1.5,1.5,0,0,1,.71,2.92,25.27,25.27,0,0,0-8.73,4.38q-.74,2.44-1.49,4.86c-2.24,7.19-4.35,14-4.3,19.94.05,5.39,1.66,9.59,4.79,12.49,3.53,3.26,9,4.8,15.38,4.37,8.88-.61,19.65-7.78,23.85-25.45a1.57,1.57,0,0,1,.16-.67,66.4,66.4,0,0,0,1.29-8.3,1.5,1.5,0,1,1,3,.27,68.06,68.06,0,0,1-1.39,8.73c2.23,10.62,8.68,17.82,18.67,20.82,17.3,5.19,43.41-2.77,58.21-17.73a39.08,39.08,0,0,0,5.8-7.36,1.5,1.5,0,0,1,2.57,1.55,39.6,39.6,0,0,1-4,5.47c.21.33.46.7.69,1,9.63,13.2,24.52,19.29,41.92,17.11,21-2.62,38.74-15.92,43.08-26.73,1.79-4.46,1.39-8.34-1.2-11.52-3.81-4.69-7.36-7.07-10.84-7.28-5.89-.38-12,5.06-21.27,14-6,5.81-11.95,7.93-17.58,6.3-8.43-2.44-13.76-12.83-15.75-21a.43.43,0,0,1,0-.11,1.6,1.6,0,0,1,0-.3,1.51,1.51,0,0,1,.94-1.4h.05l.22-.07H406a1.73,1.73,0,0,1,.32,0,29.23,29.23,0,0,0,24-6c5.89-4.67,9.46-11,9.56-17.06a11.84,11.84,0,0,0-.67-3.9h0a1.5,1.5,0,0,1,2.78-1.12c3.19,7.4,10.69,12.08,15.32,11.32,6.88-1.14,13.86-9.41,16.62-16.74a1.5,1.5,0,0,1,2.86.15c6.53,25.16,8.7,51.4,6.12,73.91a1.51,1.51,0,0,1-1.21,1.33,60.72,60.72,0,0,0-13.06,3.87,33,33,0,0,0-7.59,5,10.73,10.73,0,0,0-3.27,10.08c1.11,5.53,4.7,9.39,10.66,11.49,11.45,4,31.82,1.49,55.87-6.94,21.83-7.66,43.09-18.87,55.49-29.26a39.87,39.87,0,0,0,11.48-14.81,1.5,1.5,0,0,1,2.77,1.15,38.69,38.69,0,0,1-7.2,11,33.3,33.3,0,0,0,4,3c11.9,7.52,31.39,7.67,45.35.34a1.5,1.5,0,0,1,1.4,2.66,47.16,47.16,0,0,1-7.35,3.05,19.87,19.87,0,0,0-2.93,15.22,16.08,16.08,0,0,0,7.2,10.38C651.36,210,673.1,197.34,701,161.3a1.46,1.46,0,0,1,1.23-.58,1.49,1.49,0,0,1,1.2.66c4.66,6.91,10,15,13.35,20.19,8,12.45,23.43,12.45,31,7.69,2.69-1.7,4.52-4.9,5.15-9C753.94,174,752.89,160.5,735.19,139.79ZM414.88,116.18a13.36,13.36,0,0,1-9,4l-.36,0h-.17a1,1,0,0,1-.25-.06h0a1.49,1.49,0,0,1-.36-.17.18.18,0,0,1-.07,0,1.24,1.24,0,0,1-.29-.27s0,0,0,0a1.37,1.37,0,0,1-.2-.35l0,0,0-.09a0,0,0,0,0,0,0c-2.38-6.5.82-12.9,3.57-15.63,1.77-1.76,3.05-1.77,3.82-1.48,2.14.81,4.2,3.79,5.07,6.44a1.61,1.61,0,0,1,.16.38c0,.13,0,.26.06.39a1.8,1.8,0,0,1,0,.19s0,.11,0,.13l0,.15a.49.49,0,0,1,0,.12A7.87,7.87,0,0,1,414.88,116.18ZM510,110.4a1.5,1.5,0,0,1-1.49-1.37A53,53,0,0,0,506.17,98a1.51,1.51,0,0,1,.15-1.26,1.54,1.54,0,0,1,1.06-.7c7-1,12.89-.33,15.71,1.89a4.35,4.35,0,0,1,1.79,3.05,4.57,4.57,0,0,1-1.33,3.28c-2.29,2.69-7.79,5.77-13.48,6.19ZM555,143.85c-.72,6.56-16.69,13.29-34.42,20.19l-1.38.54a1.71,1.71,0,0,1-.54.1,1.56,1.56,0,0,1-.88-.28,1.51,1.51,0,0,1-.62-1.28,166.36,166.36,0,0,0-.48-18.29,1.49,1.49,0,0,1,.93-1.54c12.69-5.12,30-7.79,35.53-3.6A4.42,4.42,0,0,1,555,143.85Zm67.13,1.46a7.81,7.81,0,0,1-5.36,3.12,7.09,7.09,0,0,1-.79,0c-5,0-9.52-5-10.47-11.85-.57-4.09.34-8.13,2.43-10.79a7.74,7.74,0,0,1,5.35-3.12c5.32-.56,10.26,4.63,11.26,11.81A14.57,14.57,0,0,1,622.16,145.31Z"/></g></svg>